<?xml version="1.0" encoding="UTF-8" standalone="no"?>
<!DOCTYPE svg PUBLIC "-//W3C//DTD SVG 1.1//EN" "http://www.w3.org/Graphics/SVG/1.1/DTD/svg11.dtd">
<svg xmlns="http://www.w3.org/2000/svg" version="1.1" viewBox="0.00 0.00 512.00 512.00">
<g stroke-width="2.00" fill="none" stroke-linecap="butt">
<path stroke="#4ab390" vector-effect="non-scaling-stroke" d="
  M 190.72 112.00
  L 190.73 145.25
  Q 190.73 145.75 190.23 145.75
  L 168.74 145.75
  A 0.50 0.49 0.0 0 1 168.24 145.26
  L 168.27 111.99"
/>
<path stroke="#4ab390" vector-effect="non-scaling-stroke" d="
  M 404.41 183.51
  L 98.06 183.25"
/>
<path stroke="#8ed2bd" vector-effect="non-scaling-stroke" d="
  M 404.29 309.79
  Q 401.87 308.20 399.77 306.52
  C 353.35 269.29 284.94 303.33 286.29 362.23
  Q 286.67 378.81 294.59 393.99"
/>
<path stroke="#4ab390" vector-effect="non-scaling-stroke" d="
  M 336.72 112.00
  L 336.73 145.25
  Q 336.73 145.75 336.23 145.75
  L 314.53 145.75
  A 0.53 0.53 0.0 0 1 314.00 145.22
  L 314.01 112.00"
/>
<path stroke="#8ed2bd" vector-effect="non-scaling-stroke" d="
  M 202.50 224.64
  A 0.39 0.39 0.0 0 0 202.11 224.25
  L 146.39 224.25
  A 0.39 0.39 0.0 0 0 146.00 224.64
  L 146.00 280.36
  A 0.39 0.39 0.0 0 0 146.39 280.75
  L 202.11 280.75
  A 0.39 0.39 0.0 0 0 202.50 280.36
  L 202.50 224.64"
/>
<path stroke="#8ed2bd" vector-effect="non-scaling-stroke" d="
  M 280.75 224.54
  A 0.29 0.29 0.0 0 0 280.46 224.25
  L 224.54 224.25
  A 0.29 0.29 0.0 0 0 224.25 224.54
  L 224.25 280.46
  A 0.29 0.29 0.0 0 0 224.54 280.75
  L 280.46 280.75
  A 0.29 0.29 0.0 0 0 280.75 280.46
  L 280.75 224.54"
/>
<path stroke="#8ed2bd" vector-effect="non-scaling-stroke" d="
  M 359.00 224.54
  A 0.29 0.29 0.0 0 0 358.71 224.25
  L 302.79 224.25
  A 0.29 0.29 0.0 0 0 302.50 224.54
  L 302.50 280.46
  A 0.29 0.29 0.0 0 0 302.79 280.75
  L 358.71 280.75
  A 0.29 0.29 0.0 0 0 359.00 280.46
  L 359.00 224.54"
/>
<path stroke="#8ed2bd" vector-effect="non-scaling-stroke" d="
  M 202.08 359.00
  A 0.42 0.42 0.0 0 0 202.50 358.58
  L 202.50 302.92
  A 0.42 0.42 0.0 0 0 202.08 302.50
  L 146.42 302.50
  A 0.42 0.42 0.0 0 0 146.00 302.92
  L 146.01 358.58
  A 0.42 0.42 0.0 0 0 146.43 359.00
  L 202.08 359.00"
/>
<path stroke="#8ed2bd" vector-effect="non-scaling-stroke" d="
  M 280.75 302.77
  A 0.27 0.27 0.0 0 0 280.48 302.50
  L 224.52 302.50
  A 0.27 0.27 0.0 0 0 224.25 302.77
  L 224.25 358.73
  A 0.27 0.27 0.0 0 0 224.52 359.00
  L 280.48 359.00
  A 0.27 0.27 0.0 0 0 280.75 358.73
  L 280.75 302.77"
/>
<path stroke="#8ed2bd" vector-effect="non-scaling-stroke" d="
  M 355.48 366.60
  Q 348.86 359.97 342.17 353.31
  C 338.73 349.88 335.08 347.65 330.56 349.57
  C 324.23 352.27 322.10 360.20 326.94 365.06
  Q 337.32 375.47 347.73 385.84
  C 351.49 389.59 354.96 391.66 359.91 389.41
  C 362.39 388.29 364.50 385.37 365.99 383.87
  C 383.11 366.76 400.68 349.89 417.30 332.30
  Q 420.58 328.83 424.02 325.52
  Q 432.94 316.92 441.69 308.15
  Q 444.95 304.88 445.67 302.90
  C 448.45 295.26 440.53 287.33 433.02 290.74
  Q 431.39 291.49 428.24 294.63
  Q 392.22 330.66 356.27 366.60
  A 0.56 0.55 44.6 0 1 355.48 366.60"
/>
<path stroke="#8ed2bd" vector-effect="non-scaling-stroke" d="
  M 356.87 429.83
  Q 360.19 429.82 363.49 429.42
  C 409.19 423.80 437.44 377.90 419.94 334.44
  A 0.28 0.28 0.0 0 0 419.48 334.35
  L 416.09 337.80
  Q 415.80 338.10 415.94 338.48
  C 430.02 376.99 405.02 419.45 363.75 424.14
  C 323.76 428.68 289.56 396.40 292.60 356.01
  C 296.69 301.56 363.08 277.04 401.69 316.08
  Q 402.23 316.62 402.77 316.09
  L 405.38 313.54
  Q 405.98 312.96 405.38 312.37
  Q 381.63 289.29 350.24 291.97
  C 311.61 295.27 282.70 330.67 287.51 369.25
  C 291.86 404.04 321.72 429.94 356.87 429.83"
/>
<path stroke="#8ed2bd" vector-effect="non-scaling-stroke" d="
  M 358.5191 304.9548
  A 2.43 2.43 0.0 0 0 356.0933 302.5206
  L 355.4533 302.5195
  A 2.43 2.43 0.0 0 0 353.0191 304.9452
  L 353.0009 315.3452
  A 2.43 2.43 0.0 0 0 355.4267 317.7794
  L 356.0667 317.7805
  A 2.43 2.43 0.0 0 0 358.5009 315.3548
  L 358.5191 304.9548"
/>
<path stroke="#8ed2bd" vector-effect="non-scaling-stroke" d="
  M 414.51 360.57
  A 2.57 2.57 0.0 0 0 411.94 358.00
  L 401.64 358.00
  A 2.57 2.57 0.0 0 0 399.07 360.57
  L 399.07 360.93
  A 2.57 2.57 0.0 0 0 401.64 363.50
  L 411.94 363.50
  A 2.57 2.57 0.0 0 0 414.51 360.93
  L 414.51 360.57"
/>
<path stroke="#8ed2bd" vector-effect="non-scaling-stroke" d="
  M 311.7593 361.1067
  A 2.37 2.37 0.0 0 0 309.3852 358.7408
  L 298.8852 358.7592
  A 2.37 2.37 0.0 0 0 296.5193 361.1333
  L 296.5207 361.8933
  A 2.37 2.37 0.0 0 0 298.8948 364.2592
  L 309.3948 364.2408
  A 2.37 2.37 0.0 0 0 311.7607 361.8667
  L 311.7593 361.1067"
/>
<path stroke="#8ed2bd" vector-effect="non-scaling-stroke" d="
  M 359.2590 407.6848
  A 2.46 2.46 0.0 0 0 356.8033 405.2205
  L 356.2233 405.2195
  A 2.46 2.46 0.0 0 0 353.7590 407.6752
  L 353.7410 418.0152
  A 2.46 2.46 0.0 0 0 356.1967 420.4795
  L 356.7767 420.4805
  A 2.46 2.46 0.0 0 0 359.2410 418.0248
  L 359.2590 407.6848"
/>
</g>
<path fill="#1da57a" d="
  M 190.72 112.00
  L 190.73 145.25
  Q 190.73 145.75 190.23 145.75
  L 168.74 145.75
  A 0.50 0.49 0.0 0 1 168.24 145.26
  L 168.27 111.99
  C 168.24 108.12 167.69 103.11 169.18 99.84
  C 173.25 90.93 187.03 91.46 190.12 100.76
  C 191.16 103.88 190.76 108.39 190.72 112.00
  Z"
/>
<path fill="#1da57a" d="
  M 336.72 112.00
  L 336.73 145.25
  Q 336.73 145.75 336.23 145.75
  L 314.53 145.75
  A 0.53 0.53 0.0 0 1 314.00 145.22
  L 314.01 112.00
  C 313.91 105.70 313.24 98.94 319.35 95.09
  C 325.37 91.30 334.30 94.22 336.28 101.39
  C 337.10 104.37 336.76 108.58 336.72 112.00
  Z"
/>
<path fill="#76c1a6" d="
  M 168.27 111.99
  L 168.24 145.26
  A 0.50 0.49 0.0 0 0 168.74 145.75
  L 190.23 145.75
  Q 190.73 145.75 190.73 145.25
  L 190.72 112.00
  L 314.01 112.00
  L 314.00 145.22
  A 0.53 0.53 0.0 0 0 314.53 145.75
  L 336.23 145.75
  Q 336.73 145.75 336.73 145.25
  L 336.72 112.00
  Q 358.82 111.99 380.74 112.00
  Q 388.35 112.01 392.08 113.37
  C 397.03 115.19 404.71 120.22 404.76 126.31
  Q 404.99 154.91 404.41 183.51
  L 98.06 183.25
  Q 98.38 154.56 98.48 126.00
  C 98.50 120.66 107.37 114.85 111.42 113.36
  Q 115.18 111.97 122.74 111.99
  Q 145.44 112.02 168.27 111.99
  Z"
/>
<path fill="#1da57a" d="
  M 98.06 183.25
  L 404.41 183.51
  L 404.29 309.79
  Q 401.87 308.20 399.77 306.52
  C 353.35 269.29 284.94 303.33 286.29 362.23
  Q 286.67 378.81 294.59 393.99
  Q 207.61 394.01 120.87 394.00
  Q 114.34 394.00 110.81 392.66
  Q 102.49 389.50 99.33 381.17
  Q 98.00 377.65 97.99 371.16
  Q 97.96 277.14 98.06 183.25
  Z
  M 202.50 224.64
  A 0.39 0.39 0.0 0 0 202.11 224.25
  L 146.39 224.25
  A 0.39 0.39 0.0 0 0 146.00 224.64
  L 146.00 280.36
  A 0.39 0.39 0.0 0 0 146.39 280.75
  L 202.11 280.75
  A 0.39 0.39 0.0 0 0 202.50 280.36
  L 202.50 224.64
  Z
  M 280.75 224.54
  A 0.29 0.29 0.0 0 0 280.46 224.25
  L 224.54 224.25
  A 0.29 0.29 0.0 0 0 224.25 224.54
  L 224.25 280.46
  A 0.29 0.29 0.0 0 0 224.54 280.75
  L 280.46 280.75
  A 0.29 0.29 0.0 0 0 280.75 280.46
  L 280.75 224.54
  Z
  M 359.00 224.54
  A 0.29 0.29 0.0 0 0 358.71 224.25
  L 302.79 224.25
  A 0.29 0.29 0.0 0 0 302.50 224.54
  L 302.50 280.46
  A 0.29 0.29 0.0 0 0 302.79 280.75
  L 358.71 280.75
  A 0.29 0.29 0.0 0 0 359.00 280.46
  L 359.00 224.54
  Z
  M 202.08 359.00
  A 0.42 0.42 0.0 0 0 202.50 358.58
  L 202.50 302.92
  A 0.42 0.42 0.0 0 0 202.08 302.50
  L 146.42 302.50
  A 0.42 0.42 0.0 0 0 146.00 302.92
  L 146.01 358.58
  A 0.42 0.42 0.0 0 0 146.43 359.00
  L 202.08 359.00
  Z
  M 280.75 302.77
  A 0.27 0.27 0.0 0 0 280.48 302.50
  L 224.52 302.50
  A 0.27 0.27 0.0 0 0 224.25 302.77
  L 224.25 358.73
  A 0.27 0.27 0.0 0 0 224.52 359.00
  L 280.48 359.00
  A 0.27 0.27 0.0 0 0 280.75 358.73
  L 280.75 302.77
  Z"
/>
<rect fill="#ffffff" x="146.00" y="224.25" width="56.50" height="56.50" rx="0.39"/>
<rect fill="#ffffff" x="224.25" y="224.25" width="56.50" height="56.50" rx="0.29"/>
<rect fill="#ffffff" x="302.50" y="224.25" width="56.50" height="56.50" rx="0.29"/>
<path fill="#ffffff" d="
  M 294.59 393.99
  Q 286.67 378.81 286.29 362.23
  C 284.94 303.33 353.35 269.29 399.77 306.52
  Q 401.87 308.20 404.29 309.79
  Q 404.77 310.96 406.19 312.02
  Q 406.58 312.31 406.93 311.97
  Q 416.65 302.22 426.40 292.51
  Q 429.99 288.93 432.37 287.97
  C 442.63 283.83 452.70 295.29 447.83 305.04
  Q 446.86 306.98 443.24 310.60
  Q 432.06 321.79 420.88 332.97
  Q 420.51 333.33 420.67 333.82
  Q 421.49 336.34 422.30 338.80
  C 439.21 390.10 394.54 440.24 341.60 429.04
  C 321.00 424.69 305.39 412.42 294.59 393.99
  Z
  M 355.48 366.60
  Q 348.86 359.97 342.17 353.31
  C 338.73 349.88 335.08 347.65 330.56 349.57
  C 324.23 352.27 322.10 360.20 326.94 365.06
  Q 337.32 375.47 347.73 385.84
  C 351.49 389.59 354.96 391.66 359.91 389.41
  C 362.39 388.29 364.50 385.37 365.99 383.87
  C 383.11 366.76 400.68 349.89 417.30 332.30
  Q 420.58 328.83 424.02 325.52
  Q 432.94 316.92 441.69 308.15
  Q 444.95 304.88 445.67 302.90
  C 448.45 295.26 440.53 287.33 433.02 290.74
  Q 431.39 291.49 428.24 294.63
  Q 392.22 330.66 356.27 366.60
  A 0.56 0.55 44.6 0 1 355.48 366.60
  Z
  M 356.87 429.83
  Q 360.19 429.82 363.49 429.42
  C 409.19 423.80 437.44 377.90 419.94 334.44
  A 0.28 0.28 0.0 0 0 419.48 334.35
  L 416.09 337.80
  Q 415.80 338.10 415.94 338.48
  C 430.02 376.99 405.02 419.45 363.75 424.14
  C 323.76 428.68 289.56 396.40 292.60 356.01
  C 296.69 301.56 363.08 277.04 401.69 316.08
  Q 402.23 316.62 402.77 316.09
  L 405.38 313.54
  Q 405.98 312.96 405.38 312.37
  Q 381.63 289.29 350.24 291.97
  C 311.61 295.27 282.70 330.67 287.51 369.25
  C 291.86 404.04 321.72 429.94 356.87 429.83
  Z
  M 358.5191 304.9548
  A 2.43 2.43 0.0 0 0 356.0933 302.5206
  L 355.4533 302.5195
  A 2.43 2.43 0.0 0 0 353.0191 304.9452
  L 353.0009 315.3452
  A 2.43 2.43 0.0 0 0 355.4267 317.7794
  L 356.0667 317.7805
  A 2.43 2.43 0.0 0 0 358.5009 315.3548
  L 358.5191 304.9548
  Z
  M 414.51 360.57
  A 2.57 2.57 0.0 0 0 411.94 358.00
  L 401.64 358.00
  A 2.57 2.57 0.0 0 0 399.07 360.57
  L 399.07 360.93
  A 2.57 2.57 0.0 0 0 401.64 363.50
  L 411.94 363.50
  A 2.57 2.57 0.0 0 0 414.51 360.93
  L 414.51 360.57
  Z
  M 311.7593 361.1067
  A 2.37 2.37 0.0 0 0 309.3852 358.7408
  L 298.8852 358.7592
  A 2.37 2.37 0.0 0 0 296.5193 361.1333
  L 296.5207 361.8933
  A 2.37 2.37 0.0 0 0 298.8948 364.2592
  L 309.3948 364.2408
  A 2.37 2.37 0.0 0 0 311.7607 361.8667
  L 311.7593 361.1067
  Z
  M 359.2590 407.6848
  A 2.46 2.46 0.0 0 0 356.8033 405.2205
  L 356.2233 405.2195
  A 2.46 2.46 0.0 0 0 353.7590 407.6752
  L 353.7410 418.0152
  A 2.46 2.46 0.0 0 0 356.1967 420.4795
  L 356.7767 420.4805
  A 2.46 2.46 0.0 0 0 359.2410 418.0248
  L 359.2590 407.6848
  Z"
/>
<path fill="#1da57a" d="
  M 355.48 366.60
  A 0.56 0.55 44.6 0 0 356.27 366.60
  Q 392.22 330.66 428.24 294.63
  Q 431.39 291.49 433.02 290.74
  C 440.53 287.33 448.45 295.26 445.67 302.90
  Q 444.95 304.88 441.69 308.15
  Q 432.94 316.92 424.02 325.52
  Q 420.58 328.83 417.30 332.30
  C 400.68 349.89 383.11 366.76 365.99 383.87
  C 364.50 385.37 362.39 388.29 359.91 389.41
  C 354.96 391.66 351.49 389.59 347.73 385.84
  Q 337.32 375.47 326.94 365.06
  C 322.10 360.20 324.23 352.27 330.56 349.57
  C 335.08 347.65 338.73 349.88 342.17 353.31
  Q 348.86 359.97 355.48 366.60
  Z"
/>
<path fill="#1da57a" d="
  M 356.87 429.83
  C 321.72 429.94 291.86 404.04 287.51 369.25
  C 282.70 330.67 311.61 295.27 350.24 291.97
  Q 381.63 289.29 405.38 312.37
  Q 405.98 312.96 405.38 313.54
  L 402.77 316.09
  Q 402.23 316.62 401.69 316.08
  C 363.08 277.04 296.69 301.56 292.60 356.01
  C 289.56 396.40 323.76 428.68 363.75 424.14
  C 405.02 419.45 430.02 376.99 415.94 338.48
  Q 415.80 338.10 416.09 337.80
  L 419.48 334.35
  A 0.28 0.28 0.0 0 1 419.94 334.44
  C 437.44 377.90 409.19 423.80 363.49 429.42
  Q 360.19 429.82 356.87 429.83
  Z"
/>
<path fill="#ffffff" d="
  M 202.08 359.00
  L 146.43 359.00
  A 0.42 0.42 0.0 0 1 146.01 358.58
  L 146.00 302.92
  A 0.42 0.42 0.0 0 1 146.42 302.50
  L 202.08 302.50
  A 0.42 0.42 0.0 0 1 202.50 302.92
  L 202.50 358.58
  A 0.42 0.42 0.0 0 1 202.08 359.00
  Z"
/>
<rect fill="#ffffff" x="224.25" y="302.50" width="56.50" height="56.50" rx="0.27"/>
<rect fill="#1da57a" x="-2.75" y="-7.63" transform="translate(355.76,310.15) rotate(0.1)" width="5.50" height="15.26" rx="2.43"/>
<rect fill="#1da57a" x="399.07" y="358.00" width="15.44" height="5.50" rx="2.57"/>
<rect fill="#1da57a" x="-7.62" y="-2.75" transform="translate(304.14,361.50) rotate(-0.1)" width="15.24" height="5.50" rx="2.37"/>
<rect fill="#1da57a" x="-2.75" y="-7.63" transform="translate(356.50,412.85) rotate(0.1)" width="5.50" height="15.26" rx="2.46"/>
</svg>
